<?xml version="1.0" encoding="utf-8"?>
<svg viewBox="399.961 177.158 140.977 126.59" xmlns="http://www.w3.org/2000/svg">
  <mask id="path-1-inside-1_3_132" fill="white">
    <path fill-rule="evenodd" clip-rule="evenodd" d="M 435.46 192.076 C 431.622 200.297 431.17 203.841 430.792 228.687 L 430.434 252.291 L 426.683 258.937 C 423.848 263.963 422.2 265.985 419.921 267.233 C 415.834 269.47 413.136 274.748 413.69 279.424 C 414.996 290.437 429.76 294.546 437.32 286 L 439.52 283.514 L 441.651 285.922 C 444.511 289.156 447.672 290.597 451.9 290.597 C 460.811 290.597 467.367 282.372 464.843 274.358 C 463.752 270.896 459.792 266.965 456.267 265.846 C 454.241 265.203 453.015 263.726 449.894 258.175 L 446.029 251.3 L 446.029 228.896 C 446.029 205.172 445.365 199.844 441.415 191.864 C 439.263 187.518 437.56 187.578 435.46 192.076 Z M 465.901 189.194 C 463.012 190.306 459.254 194.459 456.956 199.079 C 454.341 204.337 453.414 214.175 454.895 220.949 C 455.804 225.107 458.829 230.744 462.505 235.129 C 464.232 237.19 464.336 238.017 464.336 249.707 C 464.336 261.796 464.383 262.135 466.257 263.579 C 468.717 265.475 472.973 265.475 475.433 263.579 C 477.307 262.135 477.354 261.797 477.354 249.707 C 477.354 238.04 477.461 237.188 479.177 235.13 C 485.668 227.346 487.912 220.631 487.278 210.888 C 487.043 207.27 486.25 202.697 485.516 200.725 C 483.976 196.585 479.454 191.24 476.092 189.587 C 473.576 188.348 468.596 188.157 465.901 189.194 Z M 494.848 189.22 C 494.848 189.646 494.842 190.255 494.836 190.574 C 494.828 190.894 497.3 191.329 500.328 191.542 C 505.271 191.889 505.859 192.106 506.093 193.67 C 506.338 195.319 506.079 195.411 501.17 195.411 C 495.662 195.411 493.393 196.452 494.967 198.256 C 495.54 198.912 497.747 199.28 501.107 199.28 C 506.081 199.28 506.339 199.37 506.093 201.021 C 505.856 202.603 505.33 202.784 500.34 202.992 C 495.562 203.191 494.848 203.413 494.848 204.697 C 494.848 205.982 495.562 206.204 500.34 206.403 C 505.33 206.611 505.856 206.791 506.093 208.373 C 506.338 210.022 506.079 210.114 501.17 210.114 C 495.897 210.114 493.818 211.001 494.592 212.918 C 494.9 213.682 496.625 213.984 500.688 213.984 C 506.097 213.984 506.341 214.063 506.093 215.725 C 505.859 217.289 505.271 217.506 500.328 217.853 C 497.3 218.066 494.828 218.501 494.836 218.821 C 494.842 219.14 494.848 219.733 494.848 220.139 C 494.848 220.546 497.32 220.981 500.34 221.107 C 505.33 221.315 505.856 221.495 506.093 223.077 C 506.341 224.739 506.097 224.818 500.688 224.818 C 496.625 224.818 494.9 225.12 494.592 225.885 C 493.818 227.801 495.897 228.687 501.17 228.687 C 506.079 228.687 506.338 228.78 506.093 230.429 C 505.859 231.993 505.271 232.209 500.328 232.557 C 497.3 232.77 494.828 233.205 494.836 233.524 C 494.842 233.843 494.848 234.437 494.848 234.843 C 494.848 235.249 497.32 235.685 500.34 235.81 C 505.33 236.018 505.856 236.199 506.093 237.78 C 506.341 239.443 506.097 239.522 500.688 239.522 C 496.625 239.522 494.9 239.824 494.592 240.588 C 493.82 242.5 495.893 243.391 501.113 243.391 C 505.6 243.391 506.239 243.574 506.239 244.856 C 506.239 246.422 504.755 247.25 501.901 247.277 C 499.142 247.304 493.086 250.196 490.097 252.915 C 488.602 254.274 486.413 257.127 485.231 259.256 C 483.454 262.454 483.083 264.131 483.095 268.929 C 483.107 273.874 483.463 275.347 485.495 278.88 C 490.239 287.129 497.898 291.097 507.779 290.424 C 516.187 289.851 522.515 285.857 526.317 278.721 C 531.002 269.926 529.449 260.878 521.997 253.561 L 517.63 249.273 L 517.63 220.898 C 517.63 185.674 518.747 188.446 504.552 188.446 C 498.625 188.446 494.848 188.747 494.848 189.22 Z M 683.653 190.337 C 682.539 191.614 683.151 193.089 684.797 193.089 C 686.352 193.089 686.967 191.033 685.709 190.041 C 684.927 189.423 684.382 189.502 683.653 190.337 Z M 661.176 191.034 C 660.355 193.07 661.184 195.772 662.717 196.05 C 663.966 196.276 664.154 195.868 663.937 193.409 C 663.673 190.405 662.007 188.974 661.176 191.034 Z M 476.287 193.995 C 477.49 194.794 479.494 197.431 480.741 199.854 C 483.936 206.066 484.442 216.911 481.843 223.476 C 477.858 233.537 471.352 236.566 464.869 231.378 C 457.632 225.586 455.671 209.43 460.994 199.447 C 465.007 191.92 470.317 190.027 476.287 193.995 Z M 512.275 192.011 C 513.416 192.428 513.562 195.65 513.562 220.341 C 513.562 245.426 513.434 248.153 512.275 247.73 C 511.567 247.472 510.652 247.26 510.241 247.26 C 509.386 247.26 509.185 192.867 510.036 192.058 C 510.696 191.429 510.682 191.429 512.275 192.011 Z M 227.877 196.078 C 226.81 196.871 225.022 197.787 223.903 198.115 C 219.939 199.274 211.223 203.804 206.255 207.286 C 196.681 213.997 188.386 225.769 185.062 237.362 C 183.988 241.107 183.662 245.457 183.647 256.218 L 183.627 270.206 L 186.08 273.983 C 187.868 276.735 189.716 278.347 192.886 279.923 C 196.939 281.936 197.903 282.085 206.909 282.085 C 216.037 282.085 216.58 281.998 216.58 280.537 C 216.58 279.081 216.037 278.989 207.48 278.989 C 196.571 278.989 192.562 277.592 189.065 272.569 C 187.022 269.634 186.864 268.777 186.602 259.245 C 186.154 242.979 188.826 232.798 196.352 222.098 C 202.591 213.225 211.665 206.287 222.072 202.433 L 226.344 200.85 L 226.322 202.581 C 226.304 203.981 225.025 204.882 219.609 207.31 C 210.645 211.328 201.266 220.152 196.885 228.687 C 193.816 234.669 191.357 243.987 191.357 249.638 C 191.357 254.175 194.141 258.514 198.273 260.416 C 201.21 261.768 203.297 261.964 214.803 261.964 L 227.971 261.964 L 227.971 263.842 C 227.971 265.958 231.383 268.929 233.813 268.929 C 234.668 268.929 236.283 268.058 237.402 266.994 C 240.148 264.382 244.272 264.382 247.018 266.994 C 248.136 268.058 249.752 268.929 250.607 268.929 C 253.036 268.929 256.449 265.958 256.449 263.842 L 256.449 261.964 L 269.617 261.964 C 281.123 261.964 283.21 261.768 286.147 260.416 C 290.279 258.514 293.063 254.175 293.063 249.638 C 293.063 243.987 290.604 234.669 287.535 228.687 C 283.154 220.152 273.775 211.328 264.811 207.31 C 259.435 204.9 258.116 203.975 258.098 202.603 C 258.077 200.953 258.181 200.932 261.238 201.958 C 265.417 203.36 269.099 205.184 273.405 207.987 C 276.963 210.302 279.204 210.085 278.171 207.524 C 277.585 206.072 269.735 201.689 263.365 199.257 C 260.68 198.232 257.61 196.774 256.542 196.015 C 254.88 194.834 252.826 194.637 242.21 194.637 C 231.36 194.637 229.576 194.817 227.877 196.078 Z M 440.792 201.215 C 441.873 204.913 442.232 210.738 442.559 229.848 L 442.969 253.838 L 446.126 259.321 C 447.863 262.337 449.284 265.036 449.284 265.319 C 449.284 266.846 447.193 265.123 441.244 258.69 L 434.638 251.546 L 434.638 230.549 C 434.638 210.796 435.03 205.744 437.141 198.285 C 438.211 194.507 439.023 195.159 440.792 201.215 Z M 655.222 196.892 C 653.329 198.032 654.836 200.054 657.578 200.054 C 659.113 200.054 660.263 199.578 660.57 198.815 C 661.1 197.503 659.614 196.209 657.578 196.209 C 656.907 196.209 655.847 196.516 655.222 196.892 Z M 665.083 197.095 C 664.385 197.76 664.367 198.282 665.02 199.029 C 666.172 200.35 669.326 200.35 670.478 199.029 C 672.374 196.857 667.261 195.024 665.083 197.095 Z M 695.294 197.555 C 692.682 197.95 690.613 200.578 690.613 203.502 C 690.613 208.277 694.757 210.881 699.411 209.032 C 706.672 206.146 703.165 196.368 695.294 197.555 Z M 709.029 198.153 C 706.47 199.177 705.584 200.59 705.584 203.651 C 705.584 206.524 706.889 208.308 709.665 209.229 C 715.776 211.255 720.993 204.701 717.057 199.942 C 715.033 197.495 712.235 196.871 709.029 198.153 Z M 254.433 199.336 C 254.728 200.218 254.745 201.785 254.472 202.818 L 253.977 204.697 L 242.249 204.697 C 231.1 204.697 230.495 204.618 229.986 203.094 C 229.692 202.212 229.675 200.645 229.947 199.611 L 230.443 197.732 L 242.171 197.732 C 253.319 197.732 253.925 197.811 254.433 199.336 Z M 464.889 201.021 C 465.057 202.14 465.804 202.851 466.98 203.01 C 468.471 203.212 468.811 202.888 468.811 201.269 C 468.811 199.649 468.423 199.28 466.72 199.28 C 465.018 199.28 464.678 199.604 464.889 201.021 Z M 472.879 201.215 C 472.879 202.89 473.208 203.213 474.71 203.01 C 475.912 202.848 476.541 202.231 476.541 201.215 C 476.541 200.199 475.912 199.582 474.71 199.42 C 473.208 199.217 472.879 199.539 472.879 201.215 Z M 661.15 201.158 C 660.363 203.11 661.197 205.835 662.664 206.1 C 663.831 206.312 664.088 205.791 664.088 203.206 C 664.088 200.891 663.756 200.054 662.842 200.054 C 662.156 200.054 661.395 200.551 661.15 201.158 Z M 699.481 203.537 C 699.481 205.598 699.209 205.858 697.052 205.858 C 695.355 205.858 694.536 205.436 694.338 204.459 C 693.83 201.949 694.861 200.71 697.239 200.97 C 699.131 201.176 699.481 201.578 699.481 203.537 Z M 714.474 202.269 C 715.618 204.302 713.8 206.47 711.242 206.125 C 709.236 205.854 708.315 204.015 709.151 201.944 C 709.8 200.333 713.513 200.56 714.474 202.269 Z M 465.286 206.761 C 464.987 207.044 464.743 207.915 464.743 208.696 C 464.743 209.693 465.347 210.114 466.777 210.114 C 468.404 210.114 468.811 209.728 468.811 208.18 C 468.811 206.819 468.368 206.245 467.32 206.245 C 466.499 206.245 465.583 206.477 465.286 206.761 Z M 472.879 208.126 C 472.879 209.745 473.268 210.114 474.97 210.114 C 476.673 210.114 477.013 209.791 476.801 208.373 C 476.634 207.254 475.887 206.544 474.71 206.384 C 473.219 206.183 472.879 206.507 472.879 208.126 Z M 263.4 210.073 C 269.653 213.001 278.766 220.932 282.242 226.472 C 286.632 233.465 286.924 233.03 277.44 233.615 C 267.605 234.221 264.178 234.962 264.178 236.482 C 264.178 237.763 266.491 237.824 278.969 236.869 L 287.251 236.235 L 288.05 239.232 C 289.772 245.687 289.974 250.952 288.605 253.694 C 286.449 258.017 284.637 258.482 269.958 258.482 L 256.856 258.482 L 256.599 256.362 C 256.07 251.989 250.03 250.452 246.685 253.838 C 244.126 256.429 240.294 256.429 237.735 253.838 C 234.377 250.439 229.371 251.645 228.098 256.161 L 227.443 258.482 L 214.401 258.482 C 199.788 258.482 197.969 258.013 195.815 253.694 C 194.841 251.743 194.644 249.991 195.05 246.899 L 195.597 242.733 L 199.376 241.945 C 211.413 239.438 216.748 240.19 232.335 246.594 C 238.539 249.142 244.123 251.042 244.744 250.816 C 246.895 250.031 245.85 248.711 241.693 246.967 L 237.515 245.213 L 239.895 244.276 C 241.204 243.759 245.922 242.381 250.379 241.213 C 255.952 239.752 258.483 238.732 258.483 237.951 C 258.483 236.1 252.923 236.788 243.124 239.851 C 238.255 241.372 233.633 242.617 232.85 242.617 C 232.069 242.617 229.425 241.774 226.977 240.745 C 218.608 237.225 208.927 236.426 198.845 238.424 L 196.162 238.956 L 197.748 234.987 C 202.356 223.451 212.322 213.374 223.341 209.109 C 227.394 207.54 228.947 207.417 243.038 207.554 C 258.323 207.702 258.339 207.703 263.4 210.073 Z M 683.092 208.56 C 680.81 209.437 678.733 212.315 678.733 214.602 C 678.733 217.076 682.939 220.949 685.624 220.949 C 690.744 220.949 693.795 213.605 690.124 210.114 C 689.229 209.263 688.161 208.567 687.75 208.567 C 687.339 208.567 686.515 208.414 685.919 208.229 C 685.323 208.042 684.051 208.191 683.092 208.56 Z M 720.555 208.904 C 714.737 211.299 716.047 219.476 722.435 220.65 C 724.62 221.052 725.45 220.746 727.52 218.777 C 730.482 215.96 730.694 213.256 728.163 210.607 C 725.771 208.104 723.652 207.63 720.555 208.904 Z M 696.875 216.499 C 689.049 223.705 686.514 227.686 687.102 231.852 C 688.001 238.224 692.96 242.207 699.075 241.466 C 701.088 241.222 703.835 241.074 705.177 241.137 C 714.407 241.568 715.211 241.461 717.398 239.517 C 722.131 235.312 723.015 230.785 720.147 225.439 C 718.011 221.455 706.685 210.888 704.553 210.888 C 703.682 210.888 700.228 213.414 696.875 216.499 Z M 281.293 212.394 C 281.001 212.843 282.224 214.865 284.011 216.886 C 288.942 222.468 292.889 229.18 295.271 236.039 C 297.254 241.747 297.425 243.29 297.48 255.826 C 297.538 269.322 297.522 269.444 295.355 272.564 C 294.036 274.46 291.757 276.357 289.605 277.348 C 286.156 278.936 284.992 278.989 253.751 278.989 C 222.004 278.989 221.462 279.016 221.462 280.537 C 221.462 282.059 222.004 282.085 254.322 282.085 L 287.182 282.085 L 291.534 279.923 C 294.705 278.347 296.551 276.735 298.34 273.982 L 300.793 270.204 L 300.782 256.217 C 300.774 245.239 300.461 241.148 299.326 237.2 C 297.348 230.32 292.931 222.062 288.311 216.609 C 284.502 212.112 282.325 210.805 281.293 212.394 Z M 688.343 214.126 C 688.696 217.036 685.784 218.56 683.548 216.634 C 680.819 214.285 682.315 211.408 686.05 211.822 C 687.583 211.993 688.153 212.565 688.343 214.126 Z M 725.893 212.786 C 727.073 214.139 726.346 216.761 724.614 217.392 C 723.013 217.976 720.23 216.573 720.23 215.181 C 720.23 211.821 723.751 210.332 725.893 212.786 Z M 464.889 215.725 C 465.057 216.844 465.804 217.555 466.98 217.714 C 468.471 217.915 468.811 217.592 468.811 215.973 C 468.811 214.353 468.423 213.984 466.72 213.984 C 465.018 213.984 464.678 214.307 464.889 215.725 Z M 472.879 215.973 C 472.879 217.592 473.219 217.915 474.71 217.714 C 475.887 217.555 476.634 216.844 476.801 215.725 C 477.013 214.307 476.673 213.984 474.97 213.984 C 473.268 213.984 472.879 214.353 472.879 215.973 Z M 656.321 215.884 C 654.334 217.773 654.324 217.865 654.324 233.174 C 654.324 246.393 654.547 249.182 655.902 252.931 C 658.221 259.341 661.753 263.703 668.872 268.951 C 675.849 274.095 678.581 277.855 679.427 283.474 L 679.974 287.115 L 689.727 287.115 L 699.481 287.115 L 699.691 272.411 C 699.882 259.104 699.755 257.48 698.353 255.308 C 697.501 253.988 692.193 249.533 686.556 245.409 C 680.326 240.851 676.147 237.24 675.899 236.201 C 675.675 235.261 675.103 232.069 674.628 229.108 C 673.544 222.335 671.138 218.22 666.873 215.843 C 662.523 213.418 658.898 213.432 656.321 215.884 Z M 740.147 215.864 C 735.791 218.348 733.469 222.533 732.342 229.933 C 731.83 233.291 731.122 236.555 730.769 237.185 C 730.416 237.815 725.611 241.649 720.093 245.707 C 713.629 250.459 709.55 254.044 708.627 255.783 C 707.387 258.119 707.223 260.407 707.406 272.798 L 707.618 287.115 L 717.372 287.115 L 727.125 287.115 L 727.673 283.474 C 728.519 277.852 731.297 273.992 737.9 269.264 C 745.14 264.082 748.986 259.297 751.144 252.79 C 752.544 248.571 752.776 245.731 752.776 232.827 C 752.776 217.886 752.762 217.77 750.778 215.884 C 748.195 213.426 744.435 213.419 740.147 215.864 Z M 709.498 218.256 C 714.66 222.67 718.602 228.283 718.602 231.219 C 718.602 233.952 713.964 238.748 711.32 238.748 C 710.358 238.748 708.458 238.201 707.098 237.531 C 704.85 236.425 704.38 236.425 701.931 237.531 C 698.178 239.225 696.333 239.058 693.469 236.767 C 689.814 233.841 689.356 230.255 692.13 226.268 C 694.772 222.47 702.996 214.758 704.402 214.758 C 704.955 214.758 707.249 216.332 709.498 218.256 Z M 662.847 219.958 C 663.159 221.542 663.524 227.058 663.657 232.216 L 663.9 241.594 L 671.475 251.392 C 675.641 256.781 679.506 261.19 680.064 261.19 C 682.377 261.19 681.932 259.325 678.623 255.158 C 666.993 240.511 665.165 237.2 668.706 237.2 C 670.532 237.2 693.451 254.303 695.15 256.934 C 696.47 258.977 696.625 260.741 696.438 271.638 L 696.227 284.019 L 689.803 284.019 L 683.379 284.019 L 682.195 280.15 C 680.594 274.92 677.686 271.373 670.961 266.448 C 664.587 261.779 660.614 256.702 658.806 250.912 C 657.228 245.86 657.027 219.461 658.555 218.008 C 660.499 216.159 662.255 216.958 662.847 219.958 Z M 748.545 218.008 C 750.073 219.461 749.871 245.86 748.293 250.912 C 746.485 256.702 742.512 261.779 736.138 266.448 C 729.413 271.373 726.505 274.92 724.905 280.15 L 723.72 284.019 L 717.296 284.019 L 710.873 284.019 L 710.671 271.638 C 710.528 262.878 710.768 258.698 711.492 257.352 C 712.733 255.045 736.361 237.274 738.246 237.231 C 738.982 237.214 739.778 237.681 740.014 238.27 C 740.462 239.379 738.829 241.821 730.149 253.02 C 725.343 259.219 724.592 261.19 727.036 261.19 C 727.593 261.19 731.437 256.809 735.576 251.456 L 743.102 241.721 L 743.386 232.302 C 743.743 220.48 744.37 217.079 746.194 217.079 C 746.95 217.079 748.008 217.497 748.545 218.008 Z M 669.286 222.352 C 669.901 223.496 670.658 225.998 670.967 227.914 C 671.276 229.829 671.711 232.005 671.931 232.75 C 672.249 233.818 671.831 234.105 669.954 234.105 C 667.638 234.105 667.56 233.977 667.051 229.348 C 665.97 219.508 666.635 217.425 669.286 222.352 Z M 740.188 227.513 C 739.63 233.889 739.603 233.951 737.24 234.28 C 735.366 234.542 734.929 234.351 735.203 233.392 C 735.395 232.719 735.798 230.429 736.099 228.301 C 736.662 224.313 739.796 218.352 740.41 220.103 C 740.598 220.639 740.498 223.974 740.188 227.513 Z M 465.286 221.465 C 464.987 221.748 464.743 222.619 464.743 223.4 C 464.743 224.397 465.347 224.818 466.777 224.818 C 468.404 224.818 468.811 224.431 468.811 222.883 C 468.811 221.523 468.368 220.949 467.32 220.949 C 466.499 220.949 465.583 221.181 465.286 221.465 Z M 472.879 222.883 C 472.879 224.559 473.208 224.882 474.71 224.679 C 475.912 224.516 476.541 223.9 476.541 222.883 C 476.541 221.867 475.912 221.251 474.71 221.088 C 473.208 220.885 472.879 221.208 472.879 222.883 Z M 473.291 242.578 C 473.033 245.367 473.13 250.162 473.507 253.236 C 474.273 259.496 473.704 261.19 470.833 261.19 C 467.836 261.19 467.19 259.184 468.077 252.635 C 468.506 249.466 468.629 244.767 468.35 242.192 L 467.843 237.51 L 470.801 237.51 L 473.76 237.51 L 473.291 242.578 Z M 260.517 243.028 C 260.517 244.413 260.703 244.474 268.492 245.621 C 271.758 246.101 275.921 247.218 277.742 248.102 C 280.233 249.31 281.28 249.487 281.972 248.817 C 283.578 247.264 279.046 244.425 272.806 243.075 C 265.343 241.461 260.517 241.442 260.517 243.028 Z M 436.265 244.939 C 436.265 246.074 436.808 246.487 438.299 246.487 C 439.791 246.487 440.333 246.074 440.333 244.939 C 440.333 243.804 439.791 243.391 438.299 243.391 C 436.808 243.391 436.265 243.804 436.265 244.939 Z M 211.698 245.509 C 208.429 247.54 204.375 251.353 204.375 252.397 C 204.375 254.51 206.221 254.217 209.239 251.624 C 210.985 250.124 213.534 248.345 214.904 247.671 C 216.273 246.998 217.394 245.933 217.394 245.306 C 217.394 243.79 214.287 243.902 211.698 245.509 Z M 261.06 248.55 C 259.809 249.74 260.714 250.979 263.798 252.302 C 266.147 253.31 267.33 253.472 267.959 252.874 C 269.195 251.699 268.197 250.518 264.837 249.184 C 261.472 247.846 261.75 247.893 261.06 248.55 Z M 513.851 252.041 C 520.867 255.571 524.964 261.799 524.935 268.887 C 524.865 285.716 502.862 293.301 491.319 280.475 C 482.376 270.536 487.277 255.053 500.582 251.22 C 503.814 250.289 511.288 250.751 513.851 252.041 Z M 235.776 256.934 C 236.956 258.647 237.675 258.869 242.069 258.869 C 246.47 258.869 247.226 258.635 248.762 256.804 C 249.909 255.435 250.948 254.905 251.843 255.231 C 253.321 255.771 253.682 258.49 252.378 259.257 C 251.839 259.574 251.86 260.265 252.441 261.298 C 252.924 262.156 253.119 263.354 252.875 263.959 C 252.249 265.51 249.18 265.33 248.55 263.705 C 247.752 261.648 246.647 261.214 242.21 261.214 C 237.773 261.214 236.668 261.648 235.87 263.705 C 235.237 265.337 232.169 265.508 231.539 263.946 C 231.292 263.333 231.447 262.224 231.884 261.481 C 232.41 260.587 232.39 259.69 231.824 258.828 C 230.764 257.214 231.569 254.999 233.216 254.999 C 233.89 254.999 235.042 255.87 235.776 256.934 Z M 435.429 258.383 C 435.401 259.502 429.992 265.06 428.932 265.06 C 427.683 265.06 427.955 264.211 430.627 259.78 C 432.675 256.383 433.315 255.824 434.281 256.586 C 434.925 257.095 435.442 257.903 435.429 258.383 Z M 503.166 256.978 C 499.67 259.307 501.717 265.06 506.041 265.06 C 510.163 265.06 511.926 259.261 508.499 256.978 C 507.504 256.316 506.304 255.773 505.832 255.773 C 505.36 255.773 504.16 256.316 503.166 256.978 Z M 506.646 260.416 C 506.923 260.842 506.761 261.19 506.287 261.19 C 505.814 261.19 505.425 260.842 505.425 260.416 C 505.425 259.991 505.587 259.642 505.784 259.642 C 505.982 259.642 506.369 259.991 506.646 260.416 Z M 442.883 266.036 C 443.466 267.065 443.118 268.07 441.472 270.123 L 439.289 272.846 L 437.832 270.569 C 437.032 269.316 435.732 267.948 434.946 267.53 C 433.637 266.833 433.718 266.542 435.907 264.088 L 438.299 261.408 L 440.205 263.041 C 441.253 263.938 442.458 265.286 442.883 266.036 Z M 493.221 262.187 C 491.826 262.854 491.108 263.915 490.939 265.56 C 490.524 269.588 494.204 271.687 498.156 269.676 C 500.446 268.51 500.299 263.979 497.921 262.395 C 495.76 260.955 495.791 260.957 493.221 262.187 Z M 514.376 262.187 C 510.41 264.085 511.956 270.477 516.38 270.477 C 520.912 270.477 522.803 265.313 519.269 262.591 C 517.121 260.936 517.007 260.927 514.376 262.187 Z M 496.068 265.833 C 496.345 266.259 495.979 266.607 495.255 266.607 C 494.531 266.607 494.165 266.259 494.441 265.833 C 494.718 265.408 495.084 265.06 495.255 265.06 C 495.426 265.06 495.792 265.408 496.068 265.833 Z M 517.223 265.833 C 517.5 266.259 517.338 266.607 516.865 266.607 C 516.391 266.607 516.003 266.259 516.003 265.833 C 516.003 265.408 516.164 265.06 516.362 265.06 C 516.559 265.06 516.947 265.408 517.223 265.833 Z M 504.612 267.213 C 503.941 267.422 501.838 269.026 499.94 270.776 C 496.187 274.236 495.583 276.659 497.742 279.591 C 498.877 281.133 499.705 281.311 505.753 281.311 C 513.399 281.311 515.189 280.314 515.189 276.058 C 515.189 274.216 514.391 272.931 511.862 270.701 C 508.205 267.477 506.46 266.638 504.612 267.213 Z M 433.499 271.56 C 435.84 273.787 436.265 274.736 436.265 277.739 C 436.265 286.322 425.447 290.117 419.654 283.568 C 417.381 280.999 416.81 276.337 418.418 273.48 C 419.754 271.105 424.134 268.935 427.6 268.932 C 430.08 268.93 431.308 269.477 433.499 271.56 Z M 456.633 270.103 C 465.603 274.515 461.034 287.834 450.911 286.785 C 445.713 286.247 442.774 282.858 442.774 277.403 C 442.774 274.783 443.284 273.707 445.541 271.56 C 448.681 268.573 452.502 268.071 456.633 270.103 Z M 237.184 271.716 C 236.522 273.356 238.274 274.32 241.94 274.334 C 245.643 274.349 247.499 273.708 247.499 272.411 C 247.499 271.062 245.625 270.477 241.304 270.477 C 238.735 270.477 237.539 270.837 237.184 271.716 Z M 507.866 272.411 C 508.292 273.475 509.176 274.346 509.832 274.346 C 511.585 274.346 512.224 275.791 511.061 277.124 C 510.329 277.962 508.779 278.222 505.499 278.057 C 501.488 277.856 500.919 277.623 500.69 276.087 C 500.523 274.966 500.852 274.346 501.613 274.346 C 502.264 274.346 503.397 273.475 504.13 272.411 C 504.863 271.347 505.83 270.477 506.278 270.477 C 506.726 270.477 507.441 271.347 507.866 272.411 Z M 423.125 274.115 C 420.064 277.502 420.908 281.296 425.091 282.945 C 430.18 284.949 434.861 279.404 431.602 275.233 C 429.579 272.646 425 272.041 423.125 274.115 Z M 447.716 274.837 C 445.501 277.515 445.586 279.413 448.026 281.733 C 450.235 283.835 451.761 284.075 454.423 282.743 C 456.818 281.543 457.393 280.583 457.408 277.755 C 457.433 272.853 450.966 270.906 447.716 274.837 Z M 428.942 277.935 C 428.942 279.393 426.628 280.193 425.505 279.125 C 424.864 278.516 424.896 277.962 425.618 277.134 C 426.781 275.802 428.942 276.323 428.942 277.935 Z M 453.322 277.021 C 454.44 278.302 453.806 279.763 452.131 279.763 C 450.667 279.763 449.834 278.437 450.406 277.017 C 450.984 275.585 452.07 275.587 453.322 277.021 Z"/>
  </mask>
  <path fill-rule="evenodd" clip-rule="evenodd" d="M 435.46 192.077 C 431.622 200.297 431.17 203.842 430.792 228.688 L 430.434 252.291 L 426.683 258.937 C 423.848 263.963 422.199 265.985 419.92 267.233 C 415.833 269.47 413.135 274.749 413.689 279.424 C 414.995 290.437 429.76 294.546 437.32 286 L 439.52 283.514 L 441.651 285.923 C 444.511 289.156 447.672 290.597 451.9 290.597 C 460.811 290.597 467.367 282.372 464.843 274.359 C 463.752 270.896 459.792 266.965 456.267 265.846 C 454.241 265.203 453.015 263.726 449.894 258.175 L 446.029 251.3 L 446.029 228.897 C 446.029 205.173 445.365 199.845 441.415 191.864 C 439.263 187.518 437.56 187.579 435.46 192.077 Z M 465.901 189.195 C 463.012 190.307 459.254 194.459 456.956 199.079 C 454.341 204.337 453.414 214.175 454.895 220.949 C 455.804 225.107 458.829 230.744 462.505 235.129 C 464.232 237.19 464.336 238.017 464.336 249.707 C 464.336 261.796 464.383 262.135 466.257 263.579 C 468.717 265.475 472.973 265.475 475.433 263.579 C 477.307 262.135 477.354 261.797 477.354 249.708 C 477.354 238.04 477.461 237.189 479.177 235.13 C 485.668 227.346 487.912 220.631 487.278 210.889 C 487.043 207.271 486.25 202.697 485.516 200.725 C 483.976 196.585 479.454 191.24 476.092 189.587 C 473.576 188.349 468.596 188.158 465.901 189.195 Z M 494.848 189.22 C 494.848 189.646 494.842 190.255 494.836 190.574 C 494.828 190.894 497.3 191.329 500.328 191.542 C 505.271 191.889 505.859 192.106 506.093 193.67 C 506.338 195.319 506.079 195.411 501.17 195.411 C 495.662 195.411 493.393 196.452 494.967 198.256 C 495.54 198.912 497.747 199.281 501.107 199.281 C 506.081 199.281 506.339 199.37 506.093 201.022 C 505.856 202.604 505.33 202.784 500.34 202.992 C 495.562 203.191 494.848 203.413 494.848 204.698 C 494.848 205.982 495.562 206.204 500.34 206.403 C 505.33 206.611 505.856 206.792 506.093 208.374 C 506.338 210.023 506.079 210.115 501.17 210.115 C 495.897 210.115 493.818 211.001 494.592 212.918 C 494.9 213.682 496.625 213.984 500.688 213.984 C 506.097 213.984 506.341 214.063 506.093 215.725 C 505.859 217.289 505.271 217.506 500.328 217.853 C 497.3 218.066 494.828 218.501 494.836 218.821 C 494.842 219.14 494.848 219.733 494.848 220.139 C 494.848 220.546 497.32 220.981 500.34 221.107 C 505.33 221.315 505.856 221.495 506.093 223.077 C 506.341 224.739 506.097 224.818 500.688 224.818 C 496.625 224.818 494.9 225.12 494.592 225.885 C 493.818 227.802 495.897 228.688 501.17 228.688 C 506.079 228.688 506.338 228.78 506.093 230.429 C 505.859 231.993 505.271 232.21 500.328 232.557 C 497.3 232.77 494.828 233.206 494.836 233.524 C 494.842 233.843 494.848 234.437 494.848 234.843 C 494.848 235.249 497.32 235.685 500.34 235.81 C 505.33 236.019 505.856 236.199 506.093 237.781 C 506.341 239.443 506.097 239.522 500.688 239.522 C 496.625 239.522 494.9 239.824 494.592 240.588 C 493.82 242.501 495.893 243.391 501.113 243.391 C 505.6 243.391 506.239 243.574 506.239 244.856 C 506.239 246.422 504.755 247.25 501.901 247.278 C 499.142 247.304 493.086 250.197 490.097 252.915 C 488.602 254.274 486.413 257.128 485.231 259.256 C 483.454 262.454 483.083 264.131 483.095 268.929 C 483.107 273.874 483.463 275.347 485.495 278.88 C 490.239 287.129 497.898 291.097 507.779 290.424 C 516.187 289.851 522.515 285.857 526.317 278.721 C 531.002 269.927 529.449 260.878 521.997 253.562 L 517.63 249.273 L 517.63 220.899 C 517.63 185.674 518.747 188.446 504.552 188.446 C 498.625 188.446 494.848 188.747 494.848 189.22 Z M 683.653 190.338 C 682.539 191.615 683.151 193.09 684.797 193.09 C 686.352 193.09 686.967 191.033 685.709 190.041 C 684.927 189.424 684.382 189.502 683.653 190.338 Z M 661.176 191.034 C 660.355 193.07 661.184 195.773 662.717 196.05 C 663.966 196.276 664.154 195.868 663.937 193.409 C 663.673 190.406 662.007 188.974 661.176 191.034 Z M 476.287 193.995 C 477.49 194.794 479.494 197.431 480.741 199.854 C 483.936 206.066 484.442 216.912 481.843 223.476 C 477.858 233.538 471.352 236.566 464.869 231.378 C 457.632 225.586 455.671 209.431 460.994 199.447 C 465.007 191.92 470.317 190.027 476.287 193.995 Z M 512.275 192.011 C 513.416 192.428 513.562 195.65 513.562 220.341 C 513.562 245.427 513.434 248.154 512.275 247.73 C 511.567 247.472 510.652 247.261 510.241 247.261 C 509.386 247.261 509.185 192.867 510.036 192.058 C 510.696 191.43 510.682 191.43 512.275 192.011 Z M 227.877 196.078 C 226.81 196.871 225.021 197.788 223.902 198.115 C 219.938 199.274 211.222 203.804 206.254 207.286 C 196.681 213.997 188.386 225.769 185.062 237.362 C 183.988 241.108 183.662 245.458 183.646 256.218 L 183.627 270.206 L 186.08 273.983 C 187.867 276.735 189.715 278.347 192.886 279.923 C 196.939 281.936 197.902 282.085 206.908 282.085 C 216.037 282.085 216.579 281.998 216.579 280.537 C 216.579 279.081 216.037 278.989 207.48 278.989 C 196.571 278.989 192.561 277.592 189.065 272.569 C 187.022 269.634 186.863 268.777 186.601 259.245 C 186.154 242.979 188.826 232.799 196.351 222.098 C 202.59 213.225 211.664 206.287 222.072 202.433 L 226.343 200.851 L 226.321 202.581 C 226.303 203.981 225.024 204.882 219.609 207.31 C 210.645 211.328 201.266 220.152 196.885 228.688 C 193.815 234.669 191.356 243.987 191.356 249.638 C 191.356 254.175 194.141 258.514 198.272 260.416 C 201.21 261.768 203.297 261.964 214.802 261.964 L 227.971 261.964 L 227.971 263.842 C 227.971 265.958 231.383 268.929 233.813 268.929 C 234.668 268.929 236.283 268.058 237.402 266.994 C 240.148 264.383 244.271 264.383 247.017 266.994 C 248.136 268.058 249.751 268.929 250.606 268.929 C 253.036 268.929 256.448 265.958 256.448 263.842 L 256.448 261.964 L 269.617 261.964 C 281.122 261.964 283.209 261.768 286.146 260.416 C 290.278 258.514 293.062 254.175 293.062 249.638 C 293.062 243.987 290.603 234.669 287.534 228.688 C 283.153 220.152 273.774 211.328 264.81 207.31 C 259.435 204.9 258.116 203.976 258.098 202.604 C 258.077 200.954 258.181 200.932 261.238 201.958 C 265.417 203.36 269.098 205.184 273.405 207.987 C 276.963 210.303 279.204 210.085 278.17 207.525 C 277.585 206.072 269.735 201.69 263.364 199.257 C 260.679 198.233 257.61 196.774 256.542 196.016 C 254.88 194.835 252.825 194.637 242.21 194.637 C 231.359 194.637 229.576 194.817 227.877 196.078 Z M 440.792 201.215 C 441.873 204.914 442.232 210.738 442.559 229.848 L 442.969 253.839 L 446.126 259.321 C 447.863 262.337 449.284 265.036 449.284 265.319 C 449.284 266.847 447.193 265.123 441.244 258.69 L 434.638 251.546 L 434.638 230.55 C 434.638 210.797 435.03 205.744 437.141 198.285 C 438.211 194.507 439.023 195.16 440.792 201.215 Z M 655.222 196.892 C 653.329 198.032 654.836 200.054 657.578 200.054 C 659.113 200.054 660.263 199.578 660.57 198.815 C 661.1 197.503 659.614 196.209 657.578 196.209 C 656.907 196.209 655.847 196.516 655.222 196.892 Z M 665.083 197.095 C 664.385 197.76 664.367 198.282 665.02 199.03 C 666.172 200.35 669.326 200.35 670.478 199.03 C 672.374 196.857 667.261 195.024 665.083 197.095 Z M 695.294 197.556 C 692.682 197.95 690.613 200.578 690.613 203.503 C 690.613 208.278 694.757 210.882 699.411 209.032 C 706.672 206.146 703.165 196.368 695.294 197.556 Z M 709.029 198.154 C 706.47 199.177 705.584 200.591 705.584 203.651 C 705.584 206.525 706.889 208.309 709.665 209.229 C 715.776 211.255 720.993 204.702 717.057 199.942 C 715.033 197.495 712.235 196.871 709.029 198.154 Z M 254.433 199.336 C 254.728 200.218 254.745 201.786 254.472 202.819 L 253.977 204.698 L 242.249 204.698 C 231.1 204.698 230.495 204.619 229.986 203.094 C 229.691 202.212 229.674 200.645 229.947 199.612 L 230.442 197.733 L 242.17 197.733 C 253.319 197.733 253.924 197.812 254.433 199.336 Z M 464.889 201.022 C 465.057 202.141 465.804 202.851 466.98 203.011 C 468.471 203.212 468.811 202.888 468.811 201.269 C 468.811 199.65 468.423 199.281 466.72 199.281 C 465.018 199.281 464.678 199.604 464.889 201.022 Z M 472.879 201.215 C 472.879 202.891 473.208 203.213 474.71 203.011 C 475.912 202.848 476.541 202.231 476.541 201.215 C 476.541 200.199 475.912 199.582 474.71 199.42 C 473.208 199.217 472.879 199.54 472.879 201.215 Z M 661.15 201.159 C 660.363 203.11 661.197 205.835 662.664 206.101 C 663.831 206.313 664.088 205.791 664.088 203.206 C 664.088 200.892 663.756 200.054 662.842 200.054 C 662.156 200.054 661.395 200.551 661.15 201.159 Z M 699.481 203.537 C 699.481 205.598 699.209 205.858 697.052 205.858 C 695.355 205.858 694.536 205.437 694.338 204.459 C 693.83 201.949 694.861 200.71 697.239 200.97 C 699.131 201.177 699.481 201.578 699.481 203.537 Z M 714.474 202.269 C 715.618 204.302 713.8 206.471 711.242 206.125 C 709.236 205.855 708.315 204.015 709.151 201.944 C 709.8 200.334 713.513 200.561 714.474 202.269 Z M 465.286 206.762 C 464.987 207.045 464.743 207.915 464.743 208.696 C 464.743 209.694 465.347 210.115 466.777 210.115 C 468.404 210.115 468.811 209.728 468.811 208.18 C 468.811 206.82 468.368 206.245 467.32 206.245 C 466.499 206.245 465.583 206.478 465.286 206.762 Z M 472.879 208.126 C 472.879 209.746 473.268 210.115 474.97 210.115 C 476.673 210.115 477.013 209.791 476.801 208.374 C 476.634 207.255 475.887 206.544 474.71 206.385 C 473.219 206.183 472.879 206.507 472.879 208.126 Z M 263.399 210.074 C 269.652 213.001 278.765 220.932 282.242 226.472 C 286.631 233.465 286.923 233.03 277.44 233.615 C 267.604 234.222 264.178 234.962 264.178 236.482 C 264.178 237.764 266.491 237.824 278.969 236.869 L 287.25 236.235 L 288.049 239.232 C 289.771 245.687 289.973 250.952 288.604 253.694 C 286.448 258.017 284.636 258.482 269.957 258.482 L 256.855 258.482 L 256.599 256.362 C 256.069 251.989 250.03 250.452 246.685 253.839 C 244.126 256.429 240.293 256.429 237.734 253.839 C 234.377 250.439 229.371 251.645 228.098 256.161 L 227.443 258.482 L 214.401 258.482 C 199.787 258.482 197.969 258.014 195.814 253.694 C 194.84 251.743 194.643 249.992 195.049 246.899 L 195.597 242.733 L 199.376 241.946 C 211.413 239.438 216.748 240.191 232.335 246.594 C 238.538 249.143 244.122 251.043 244.743 250.817 C 246.895 250.031 245.85 248.712 241.693 246.967 L 237.515 245.213 L 239.895 244.276 C 241.204 243.76 245.921 242.381 250.379 241.213 C 255.952 239.752 258.483 238.733 258.483 237.951 C 258.483 236.1 252.923 236.788 243.123 239.851 C 238.255 241.372 233.633 242.617 232.85 242.617 C 232.068 242.617 229.425 241.775 226.976 240.745 C 218.608 237.225 208.927 236.426 198.844 238.425 L 196.162 238.956 L 197.748 234.987 C 202.356 223.451 212.322 213.374 223.341 209.109 C 227.394 207.54 228.946 207.418 243.038 207.554 C 258.322 207.702 258.339 207.703 263.399 210.074 Z M 683.092 208.56 C 680.81 209.437 678.733 212.315 678.733 214.602 C 678.733 217.076 682.939 220.949 685.624 220.949 C 690.744 220.949 693.795 213.606 690.124 210.115 C 689.229 209.263 688.161 208.567 687.75 208.567 C 687.339 208.567 686.515 208.415 685.919 208.229 C 685.323 208.042 684.051 208.192 683.092 208.56 Z M 720.555 208.904 C 714.737 211.299 716.047 219.476 722.435 220.65 C 724.62 221.052 725.45 220.746 727.52 218.777 C 730.482 215.961 730.694 213.256 728.163 210.608 C 725.771 208.104 723.652 207.63 720.555 208.904 Z M 696.875 216.499 C 689.049 223.705 686.514 227.686 687.102 231.852 C 688.001 238.224 692.96 242.207 699.075 241.466 C 701.088 241.222 703.835 241.074 705.177 241.137 C 714.407 241.568 715.211 241.461 717.398 239.517 C 722.131 235.312 723.015 230.785 720.147 225.439 C 718.011 221.455 706.685 210.889 704.553 210.889 C 703.682 210.889 700.228 213.414 696.875 216.499 Z M 281.292 212.394 C 281 212.843 282.223 214.865 284.01 216.886 C 288.941 222.468 292.888 229.181 295.27 236.039 C 297.253 241.748 297.424 243.291 297.479 255.826 C 297.537 269.322 297.521 269.444 295.354 272.564 C 294.035 274.46 291.756 276.357 289.604 277.348 C 286.155 278.936 284.991 278.989 253.75 278.989 C 222.004 278.989 221.461 279.016 221.461 280.537 C 221.461 282.059 222.004 282.085 254.322 282.085 L 287.181 282.085 L 291.533 279.923 C 294.704 278.347 296.55 276.735 298.339 273.982 L 300.792 270.204 L 300.781 256.217 C 300.773 245.239 300.46 241.149 299.325 237.2 C 297.347 230.321 292.93 222.063 288.31 216.609 C 284.501 212.112 282.325 210.805 281.292 212.394 Z M 688.343 214.126 C 688.696 217.036 685.784 218.56 683.548 216.635 C 680.819 214.285 682.315 211.408 686.05 211.823 C 687.583 211.993 688.153 212.566 688.343 214.126 Z M 725.893 212.786 C 727.073 214.139 726.346 216.761 724.614 217.392 C 723.013 217.977 720.23 216.573 720.23 215.181 C 720.23 211.821 723.751 210.332 725.893 212.786 Z M 464.889 215.725 C 465.057 216.844 465.804 217.555 466.98 217.714 C 468.471 217.915 468.811 217.592 468.811 215.973 C 468.811 214.353 468.423 213.984 466.72 213.984 C 465.018 213.984 464.678 214.308 464.889 215.725 Z M 472.879 215.973 C 472.879 217.592 473.219 217.915 474.71 217.714 C 475.887 217.555 476.634 216.844 476.801 215.725 C 477.013 214.308 476.673 213.984 474.97 213.984 C 473.268 213.984 472.879 214.353 472.879 215.973 Z M 656.321 215.884 C 654.334 217.773 654.324 217.865 654.324 233.175 C 654.324 246.393 654.547 249.182 655.902 252.931 C 658.221 259.341 661.753 263.703 668.872 268.951 C 675.849 274.095 678.581 277.855 679.427 283.474 L 679.974 287.115 L 689.727 287.115 L 699.481 287.115 L 699.691 272.411 C 699.882 259.104 699.755 257.48 698.353 255.308 C 697.501 253.988 692.193 249.533 686.556 245.409 C 680.326 240.851 676.147 237.24 675.899 236.201 C 675.675 235.261 675.103 232.069 674.628 229.108 C 673.544 222.335 671.138 218.22 666.873 215.843 C 662.523 213.418 658.898 213.432 656.321 215.884 Z M 740.147 215.865 C 735.791 218.348 733.469 222.533 732.342 229.934 C 731.83 233.291 731.122 236.555 730.769 237.185 C 730.416 237.815 725.611 241.649 720.093 245.707 C 713.629 250.459 709.55 254.044 708.627 255.783 C 707.387 258.119 707.223 260.407 707.406 272.798 L 707.618 287.115 L 717.372 287.115 L 727.125 287.115 L 727.673 283.474 C 728.519 277.852 731.297 273.992 737.9 269.264 C 745.14 264.082 748.986 259.297 751.144 252.79 C 752.544 248.571 752.776 245.731 752.776 232.827 C 752.776 217.886 752.762 217.77 750.778 215.884 C 748.195 213.426 744.435 213.419 740.147 215.865 Z M 709.498 218.256 C 714.66 222.67 718.602 228.283 718.602 231.219 C 718.602 233.952 713.964 238.748 711.32 238.748 C 710.358 238.748 708.458 238.201 707.098 237.532 C 704.85 236.426 704.38 236.426 701.931 237.532 C 698.178 239.226 696.333 239.058 693.469 236.767 C 689.814 233.842 689.356 230.255 692.13 226.269 C 694.772 222.47 702.996 214.758 704.402 214.758 C 704.955 214.758 707.249 216.332 709.498 218.256 Z M 662.847 219.958 C 663.159 221.542 663.524 227.058 663.657 232.216 L 663.9 241.594 L 671.475 251.392 C 675.641 256.782 679.506 261.19 680.064 261.19 C 682.377 261.19 681.932 259.325 678.623 255.158 C 666.993 240.511 665.165 237.2 668.706 237.2 C 670.532 237.2 693.451 254.303 695.15 256.934 C 696.47 258.977 696.625 260.741 696.438 271.638 L 696.227 284.02 L 689.803 284.02 L 683.379 284.02 L 682.195 280.15 C 680.594 274.92 677.686 271.373 670.961 266.448 C 664.587 261.779 660.614 256.702 658.806 250.913 C 657.228 245.86 657.027 219.462 658.555 218.008 C 660.499 216.159 662.255 216.958 662.847 219.958 Z M 748.545 218.008 C 750.073 219.462 749.871 245.86 748.293 250.913 C 746.485 256.702 742.512 261.779 736.138 266.448 C 729.413 271.373 726.505 274.92 724.905 280.15 L 723.72 284.02 L 717.296 284.02 L 710.873 284.02 L 710.671 271.638 C 710.528 262.878 710.768 258.698 711.492 257.352 C 712.733 255.045 736.361 237.275 738.246 237.231 C 738.982 237.214 739.778 237.682 740.014 238.27 C 740.462 239.379 738.829 241.821 730.149 253.02 C 725.343 259.219 724.592 261.19 727.036 261.19 C 727.593 261.19 731.437 256.809 735.576 251.456 L 743.102 241.721 L 743.386 232.302 C 743.743 220.48 744.37 217.08 746.194 217.08 C 746.95 217.08 748.008 217.497 748.545 218.008 Z M 669.286 222.352 C 669.901 223.496 670.658 225.998 670.967 227.914 C 671.276 229.829 671.711 232.005 671.931 232.751 C 672.249 233.818 671.831 234.105 669.954 234.105 C 667.638 234.105 667.56 233.977 667.051 229.348 C 665.97 219.508 666.635 217.426 669.286 222.352 Z M 740.188 227.513 C 739.63 233.889 739.603 233.951 737.24 234.28 C 735.366 234.542 734.929 234.352 735.203 233.392 C 735.395 232.72 735.798 230.429 736.099 228.301 C 736.662 224.313 739.796 218.353 740.41 220.103 C 740.598 220.639 740.498 223.974 740.188 227.513 Z M 465.286 221.465 C 464.987 221.748 464.743 222.619 464.743 223.4 C 464.743 224.397 465.347 224.818 466.777 224.818 C 468.404 224.818 468.811 224.431 468.811 222.884 C 468.811 221.523 468.368 220.949 467.32 220.949 C 466.499 220.949 465.583 221.181 465.286 221.465 Z M 472.879 222.884 C 472.879 224.559 473.208 224.882 474.71 224.679 C 475.912 224.517 476.541 223.9 476.541 222.884 C 476.541 221.868 475.912 221.251 474.71 221.088 C 473.208 220.886 472.879 221.208 472.879 222.884 Z M 473.291 242.579 C 473.033 245.367 473.13 250.163 473.507 253.236 C 474.273 259.496 473.704 261.19 470.833 261.19 C 467.836 261.19 467.19 259.184 468.077 252.635 C 468.506 249.466 468.629 244.767 468.35 242.192 L 467.843 237.51 L 470.801 237.51 L 473.76 237.51 L 473.291 242.579 Z M 260.517 243.028 C 260.517 244.414 260.703 244.474 268.491 245.621 C 271.758 246.101 275.921 247.218 277.742 248.102 C 280.232 249.31 281.279 249.487 281.972 248.817 C 283.577 247.264 279.046 244.425 272.805 243.076 C 265.342 241.461 260.517 241.443 260.517 243.028 Z M 436.265 244.939 C 436.265 246.074 436.808 246.487 438.299 246.487 C 439.791 246.487 440.333 246.074 440.333 244.939 C 440.333 243.804 439.791 243.391 438.299 243.391 C 436.808 243.391 436.265 243.804 436.265 244.939 Z M 211.698 245.509 C 208.428 247.54 204.375 251.353 204.375 252.397 C 204.375 254.51 206.221 254.217 209.239 251.624 C 210.985 250.124 213.534 248.345 214.903 247.672 C 216.273 246.998 217.393 245.933 217.393 245.306 C 217.393 243.791 214.287 243.902 211.698 245.509 Z M 261.059 248.551 C 259.809 249.74 260.714 250.979 263.798 252.302 C 266.147 253.31 267.329 253.473 267.958 252.874 C 269.194 251.699 268.197 250.519 264.836 249.184 C 261.472 247.846 261.75 247.893 261.059 248.551 Z M 513.851 252.041 C 520.867 255.571 524.964 261.799 524.935 268.887 C 524.865 285.716 502.862 293.301 491.319 280.475 C 482.376 270.536 487.277 255.053 500.582 251.221 C 503.814 250.289 511.288 250.751 513.851 252.041 Z M 235.775 256.934 C 236.956 258.647 237.675 258.869 242.069 258.869 C 246.47 258.869 247.226 258.635 248.762 256.804 C 249.909 255.435 250.948 254.905 251.843 255.232 C 253.321 255.771 253.682 258.49 252.378 259.257 C 251.838 259.574 251.859 260.266 252.44 261.298 C 252.924 262.156 253.119 263.354 252.875 263.959 C 252.249 265.51 249.179 265.331 248.55 263.705 C 247.751 261.648 246.646 261.214 242.21 261.214 C 237.773 261.214 236.668 261.648 235.87 263.705 C 235.237 265.338 232.168 265.508 231.538 263.946 C 231.291 263.333 231.447 262.224 231.883 261.481 C 232.41 260.587 232.39 259.691 231.823 258.828 C 230.764 257.214 231.569 254.999 233.215 254.999 C 233.89 254.999 235.042 255.87 235.775 256.934 Z M 435.429 258.383 C 435.401 259.502 429.992 265.06 428.932 265.06 C 427.683 265.06 427.955 264.212 430.627 259.78 C 432.675 256.383 433.315 255.824 434.281 256.587 C 434.925 257.095 435.442 257.903 435.429 258.383 Z M 503.166 256.978 C 499.67 259.307 501.717 265.06 506.041 265.06 C 510.163 265.06 511.926 259.261 508.499 256.978 C 507.504 256.316 506.304 255.773 505.832 255.773 C 505.36 255.773 504.16 256.316 503.166 256.978 Z M 506.646 260.416 C 506.923 260.842 506.761 261.19 506.287 261.19 C 505.814 261.19 505.425 260.842 505.425 260.416 C 505.425 259.991 505.587 259.643 505.784 259.643 C 505.982 259.643 506.369 259.991 506.646 260.416 Z M 442.883 266.036 C 443.466 267.065 443.118 268.07 441.472 270.123 L 439.289 272.846 L 437.832 270.569 C 437.032 269.316 435.732 267.949 434.946 267.53 C 433.637 266.833 433.718 266.542 435.907 264.088 L 438.299 261.408 L 440.205 263.041 C 441.253 263.938 442.458 265.286 442.883 266.036 Z M 493.221 262.187 C 491.826 262.854 491.108 263.915 490.939 265.56 C 490.524 269.588 494.204 271.687 498.156 269.676 C 500.446 268.51 500.299 263.979 497.921 262.395 C 495.76 260.955 495.791 260.957 493.221 262.187 Z M 514.376 262.187 C 510.41 264.085 511.956 270.477 516.38 270.477 C 520.912 270.477 522.803 265.314 519.269 262.591 C 517.121 260.937 517.007 260.927 514.376 262.187 Z M 496.068 265.834 C 496.345 266.259 495.979 266.607 495.255 266.607 C 494.531 266.607 494.165 266.259 494.441 265.834 C 494.718 265.408 495.084 265.06 495.255 265.06 C 495.426 265.06 495.792 265.408 496.068 265.834 Z M 517.223 265.834 C 517.5 266.259 517.338 266.607 516.865 266.607 C 516.391 266.607 516.003 266.259 516.003 265.834 C 516.003 265.408 516.164 265.06 516.362 265.06 C 516.559 265.06 516.947 265.408 517.223 265.834 Z M 504.612 267.213 C 503.941 267.422 501.838 269.026 499.94 270.776 C 496.187 274.236 495.583 276.659 497.742 279.591 C 498.877 281.133 499.705 281.311 505.753 281.311 C 513.399 281.311 515.189 280.314 515.189 276.058 C 515.189 274.216 514.391 272.931 511.862 270.701 C 508.205 267.477 506.46 266.638 504.612 267.213 Z M 433.499 271.56 C 435.84 273.787 436.265 274.736 436.265 277.739 C 436.265 286.322 425.447 290.117 419.653 283.568 C 417.38 280.999 416.809 276.337 418.417 273.48 C 419.753 271.105 424.134 268.935 427.6 268.932 C 430.08 268.93 431.308 269.477 433.499 271.56 Z M 456.633 270.103 C 465.603 274.515 461.034 287.834 450.911 286.785 C 445.713 286.247 442.774 282.858 442.774 277.403 C 442.774 274.783 443.284 273.707 445.541 271.56 C 448.681 268.573 452.502 268.071 456.633 270.103 Z M 237.184 271.716 C 236.522 273.356 238.274 274.32 241.939 274.335 C 245.643 274.349 247.498 273.708 247.498 272.411 C 247.498 271.062 245.624 270.477 241.304 270.477 C 238.734 270.477 237.538 270.837 237.184 271.716 Z M 507.866 272.411 C 508.292 273.476 509.176 274.346 509.832 274.346 C 511.585 274.346 512.224 275.791 511.061 277.124 C 510.329 277.962 508.779 278.222 505.499 278.057 C 501.488 277.856 500.919 277.623 500.69 276.087 C 500.523 274.966 500.852 274.346 501.613 274.346 C 502.264 274.346 503.397 273.476 504.13 272.411 C 504.863 271.347 505.83 270.477 506.278 270.477 C 506.726 270.477 507.441 271.347 507.866 272.411 Z M 423.125 274.115 C 420.063 277.502 420.907 281.296 425.091 282.945 C 430.18 284.949 434.861 279.404 431.602 275.233 C 429.579 272.646 425 272.042 423.125 274.115 Z M 447.716 274.838 C 445.501 277.515 445.586 279.413 448.026 281.733 C 450.235 283.835 451.761 284.075 454.423 282.743 C 456.818 281.543 457.393 280.584 457.408 277.755 C 457.433 272.853 450.966 270.906 447.716 274.838 Z M 428.942 277.935 C 428.942 279.393 426.628 280.194 425.505 279.125 C 424.864 278.516 424.896 277.962 425.618 277.134 C 426.781 275.802 428.942 276.323 428.942 277.935 Z M 453.322 277.021 C 454.44 278.302 453.806 279.763 452.131 279.763 C 450.667 279.763 449.834 278.437 450.406 277.018 C 450.984 275.585 452.07 275.587 453.322 277.021 Z" fill="#F0C513" stroke="black" stroke-width="2" mask="url(#path-1-inside-1_3_132)"/>
</svg>